<svg width="31" height="31" viewBox="0 0 31 31" fill="none" xmlns="http://www.w3.org/2000/svg">
<ellipse cx="15.1429" cy="8.15497" rx="4.41195" ry="4.29755" fill="white"/>
<path fill-rule="evenodd" clip-rule="evenodd" d="M21.7235 1.4252C21.7338 1.85378 21.3854 2.20931 20.9455 2.21931C18.9657 2.26429 17.6255 3.15781 16.7254 4.27856C15.8064 5.42292 15.3588 6.79626 15.2343 7.68791L13.6551 7.47874C13.8104 6.36646 14.3466 4.72108 15.4701 3.32205C16.6127 1.89941 18.3736 0.724894 20.9083 0.667304C21.3483 0.657307 21.7133 0.996631 21.7235 1.4252Z" fill="white"/>
<rect x="0.17334" y="20.2969" width="29.939" height="4.22346" rx="2" fill="white"/>
<path d="M0.17334 26.8896C0.17334 26.4231 0.551522 26.0449 1.01803 26.0449H29.2677C29.7342 26.0449 30.1124 26.4231 30.1124 26.8896V26.8896C30.1124 28.7557 28.5997 30.2684 26.7336 30.2684H3.55211C1.68607 30.2684 0.17334 28.7557 0.17334 26.8896V26.8896Z" fill="white"/>
<path fill-rule="evenodd" clip-rule="evenodd" d="M10.9259 4.65234C2.55701 6.25005 0.17334 12.503 0.17334 15.5744C0.17334 17.3397 1.60432 18.7706 3.36953 18.7706H29.2307C29.7513 18.7706 30.1733 18.3486 30.1733 17.828C30.1733 17.5565 30.0568 17.2987 29.8528 17.1194C29.0531 16.4162 28.0466 15.5246 26.9134 14.5208C25.0419 12.863 22.8246 10.899 20.6218 8.97122C20.2178 11.5652 17.9187 13.553 15.1429 13.553C12.0822 13.553 9.60107 11.1362 9.60107 8.15488C9.60107 6.81827 10.0998 5.59511 10.9259 4.65234Z" fill="white"/>
</svg>
